<svg xmlns="http://www.w3.org/2000/svg" viewBox="0 0 1200 900" fill="none">
  <defs>
    <linearGradient id="bg" x1="0" y1="0" x2="1" y2="1">
      <stop offset="0" stop-color="#211813"/>
      <stop offset=".52" stop-color="#4A2D20"/>
      <stop offset="1" stop-color="#87674A"/>
    </linearGradient>
    <radialGradient id="lamp" cx="0" cy="0" r="1" gradientUnits="userSpaceOnUse" gradientTransform="translate(780 184) rotate(118) scale(410 340)">
      <stop stop-color="#F1C39B" stop-opacity=".9"/>
      <stop offset="1" stop-color="#F1C39B" stop-opacity="0"/>
    </radialGradient>
    <filter id="grain">
      <feTurbulence type="fractalNoise" baseFrequency=".86" numOctaves="2" stitchTiles="stitch"/>
      <feColorMatrix type="saturate" values="0"/>
      <feComponentTransfer>
        <feFuncA type="table" tableValues="0 .07"/>
      </feComponentTransfer>
    </filter>
  </defs>
  <rect width="1200" height="900" fill="url(#bg)"/>
  <rect width="1200" height="900" fill="url(#lamp)"/>
  <path d="M0 620h1200" stroke="#E1B38A" stroke-width="22" stroke-linecap="round" stroke-dasharray="26 38"/>
  <rect x="70" y="555" width="1060" height="120" rx="40" fill="#2B201A"/>
  <rect x="102" y="590" width="990" height="44" rx="22" fill="#C77A4D"/>
  <rect x="120" y="445" width="210" height="85" rx="22" fill="#33251E"/>
  <rect x="360" y="405" width="182" height="125" rx="26" fill="#3C2A21"/>
  <rect x="580" y="382" width="228" height="148" rx="28" fill="#463127"/>
  <rect x="854" y="426" width="202" height="104" rx="22" fill="#33251E"/>
  <g fill="#E9D8C6" fill-opacity=".16">
    <rect x="142" y="208" width="108" height="168" rx="16"/>
    <rect x="320" y="208" width="108" height="168" rx="16"/>
    <rect x="498" y="208" width="108" height="168" rx="16"/>
    <rect x="676" y="208" width="108" height="168" rx="16"/>
    <rect x="854" y="208" width="108" height="168" rx="16"/>
  </g>
  <rect x="0" y="725" width="1200" height="175" fill="#191411"/>
  <rect width="1200" height="900" filter="url(#grain)"/>
</svg>
