<svg xmlns="http://www.w3.org/2000/svg" viewBox="0 0 1200 900" fill="none">
  <defs>
    <linearGradient id="bg" x1="0" y1="0" x2="1" y2="1">
      <stop offset="0" stop-color="#18201C"/>
      <stop offset=".5" stop-color="#24302B"/>
      <stop offset="1" stop-color="#4D5E53"/>
    </linearGradient>
    <radialGradient id="glow" cx="0" cy="0" r="1" gradientUnits="userSpaceOnUse" gradientTransform="translate(596 150) rotate(90) scale(310 420)">
      <stop stop-color="#EFE0CC" stop-opacity=".82"/>
      <stop offset="1" stop-color="#EFE0CC" stop-opacity="0"/>
    </radialGradient>
    <filter id="grain">
      <feTurbulence type="fractalNoise" baseFrequency=".8" numOctaves="2" stitchTiles="stitch"/>
      <feColorMatrix type="saturate" values="0"/>
      <feComponentTransfer>
        <feFuncA type="table" tableValues="0 .08"/>
      </feComponentTransfer>
    </filter>
  </defs>
  <rect width="1200" height="900" fill="url(#bg)"/>
  <rect width="1200" height="900" fill="url(#glow)"/>
  <path d="M70 840L600 180l530 660" stroke="#E2C09C" stroke-opacity=".22" stroke-width="8"/>
  <path d="M240 840L600 260l360 580" stroke="#E2C09C" stroke-opacity=".18" stroke-width="8"/>
  <g fill="#2C3933">
    <rect x="82" y="232" width="142" height="418" rx="16"/>
    <rect x="978" y="232" width="142" height="418" rx="16"/>
  </g>
  <g fill="#D89363" fill-opacity=".7">
    <rect x="108" y="272" width="90" height="42" rx="10"/>
    <rect x="108" y="340" width="90" height="42" rx="10"/>
    <rect x="108" y="408" width="90" height="42" rx="10"/>
    <rect x="108" y="476" width="90" height="42" rx="10"/>
    <rect x="1004" y="272" width="90" height="42" rx="10"/>
    <rect x="1004" y="340" width="90" height="42" rx="10"/>
    <rect x="1004" y="408" width="90" height="42" rx="10"/>
    <rect x="1004" y="476" width="90" height="42" rx="10"/>
  </g>
  <rect x="464" y="560" width="272" height="92" rx="24" fill="#DDA37D"/>
  <rect x="0" y="720" width="1200" height="180" fill="#161C18"/>
  <rect width="1200" height="900" filter="url(#grain)"/>
</svg>
